<?xml version="1.0" standalone="no"?>
<!DOCTYPE svg PUBLIC "-//W3C//DTD SVG 20010904//EN"
 "http://www.w3.org/TR/2001/REC-SVG-20010904/DTD/svg10.dtd">
<svg version="1.0" xmlns="http://www.w3.org/2000/svg"
 width="500.000000pt" height="500.000000pt" viewBox="0 0 500.000000 500.000000"
 preserveAspectRatio="xMidYMid meet">
<metadata>
Created by potrace 1.11, written by Peter Selinger 2001-2013
</metadata>
<g transform="translate(0.000000,500.000000) scale(0.100000,-0.100000)"
fill="#000000" stroke="none">
<path d="M2305 4915 c-445 -63 -825 -297 -1172 -721 -23 -27 -84 -114 -136
-192 -561 -840 -736 -2116 -436 -3182 155 -548 362 -826 547 -731 92 48 200
210 293 443 48 118 135 379 207 618 214 707 318 976 464 1200 63 97 184 215
254 247 189 86 398 -2 685 -289 116 -116 206 -220 464 -538 331 -407 496 -583
632 -672 104 -69 180 -86 242 -54 69 36 143 166 179 316 42 175 47 234 47 575
0 287 -3 353 -23 504 -63 472 -168 843 -343 1208 -244 510 -607 906 -1019
1113 -284 142 -593 196 -885 155z m-260 -1027 c201 -51 339 -264 305 -470 -35
-220 -223 -369 -445 -356 -371 24 -530 479 -255 731 109 100 245 133 395 95z"/>
<path d="M2595 1903 c-295 -35 -527 -235 -600 -518 -24 -89 -24 -237 -2 -325
59 -229 234 -416 462 -492 93 -31 297 -33 390 -4 193 59 335 179 426 361 53
108 72 203 66 330 -17 333 -252 592 -582 641 -89 14 -102 14 -160 7z"/>
</g>
</svg>
